<svg xmlns="http://www.w3.org/2000/svg" width="181.846" height="48.164" viewBox="0 0 181.846 48.164">
  <g id="Сгруппировать_2268" data-name="Сгруппировать 2268" transform="translate(-188 -67.518)">
    <path id="Контур_8667" data-name="Контур 8667" d="M13.448,0H8.364L.472-19.639H5.146l5.8,15.191,5.8-15.191H21.3Zm30.34,0H39.5V-2.358A7.421,7.421,0,0,1,33.333.512a9.328,9.328,0,0,1-6.99-2.932,10.226,10.226,0,0,1-2.829-7.4,10.226,10.226,0,0,1,2.829-7.4,9.328,9.328,0,0,1,6.99-2.931,7.436,7.436,0,0,1,6.171,2.89v-2.378h4.285ZM33.846-16.113A5.488,5.488,0,0,0,29.541-14.3a6.482,6.482,0,0,0-1.62,4.479,6.482,6.482,0,0,0,1.62,4.479,5.488,5.488,0,0,0,4.305,1.814A5.557,5.557,0,0,0,38.12-5.31a6.382,6.382,0,0,0,1.65-4.51,6.382,6.382,0,0,0-1.65-4.51A5.557,5.557,0,0,0,33.846-16.113ZM53.915,8.323H49.159L56.191-4.039l-8.713-15.6H52.3L58.61-8.364,64.7-19.639h4.715ZM83.517,0H78.433L70.54-19.639h4.674l5.8,15.191,5.8-15.191h4.551Zm21.976-20.152a7.869,7.869,0,0,1,5.74,2.183,7.523,7.523,0,0,1,2.234,5.627V0h-4.305V-10.927a5.518,5.518,0,0,0-1.2-3.8,4.287,4.287,0,0,0-3.372-1.343,5.06,5.06,0,0,0-3.629,1.384,5,5,0,0,0-1.455,3.8V0H95.2V-19.639h4.264v2.4A6.837,6.837,0,0,1,105.493-20.152Zm22.9,0a7.436,7.436,0,0,1,6.171,2.89V-29.52h4.285V0h-4.285V-2.358a7.421,7.421,0,0,1-6.171,2.87A9.328,9.328,0,0,1,121.4-2.419a10.226,10.226,0,0,1-2.829-7.4,10.226,10.226,0,0,1,2.829-7.4A9.328,9.328,0,0,1,128.391-20.152Zm.512,4.038a5.488,5.488,0,0,0-4.3,1.814,6.482,6.482,0,0,0-1.619,4.479A6.482,6.482,0,0,0,124.6-5.34a5.488,5.488,0,0,0,4.3,1.814,5.557,5.557,0,0,0,4.274-1.784,6.382,6.382,0,0,0,1.65-4.51,6.382,6.382,0,0,0-1.65-4.51A5.557,5.557,0,0,0,128.9-16.113Z" transform="translate(231 99.443)"/>
    <path id="Объединение_4" data-name="Объединение 4" d="M13.485,36.52c-3.212-.53-6.593-3.162-9.275-7.223A24.235,24.235,0,0,1,0,16.852,11.208,11.208,0,0,1,3.913,7.865a15.212,15.212,0,0,1,8.25-3.22L14.023,0h5.594L17.745,4.671a15.114,15.114,0,0,1,8.019,3.194,11.206,11.206,0,0,1,3.913,8.986A24.234,24.234,0,0,1,25.467,29.3c-2.571,3.892-5.818,6.525-8.91,7.223a7.857,7.857,0,0,1-1.532.175A8.016,8.016,0,0,1,13.485,36.52ZM9.878,14.131A5.086,5.086,0,0,0,8.1,18.21a11,11,0,0,0,1.912,5.652,6.908,6.908,0,0,0,4.212,3.28,3.708,3.708,0,0,0,.7.079,3.629,3.629,0,0,0,.7-.079,7.257,7.257,0,0,0,4.046-3.28,11.007,11.007,0,0,0,1.913-5.652A5.084,5.084,0,0,0,19.8,14.131a7.1,7.1,0,0,0-4.135-1.5l-1.441-.013A7.2,7.2,0,0,0,9.878,14.131Z" transform="translate(188 67.518)" fill="#d0141a"/>
  </g>
</svg>
